<svg width="30" height="30" viewBox="0 0 30 30" fill="none" xmlns="http://www.w3.org/2000/svg">
<path d="M16.25 20.625H13.75C12.7125 20.625 11.875 21.4625 11.875 22.5V26.875H18.125V22.5C18.125 21.4625 17.2875 20.625 16.25 20.625Z" stroke="#FE552E" stroke-width="1.5" stroke-miterlimit="10" stroke-linejoin="round"/>
<path d="M12.5875 3.52496L3.92497 10.4625C2.94997 11.2375 2.32497 12.875 2.53747 14.1L4.19996 24.05C4.49996 25.825 6.19996 27.2625 7.99996 27.2625H22C23.7875 27.2625 25.5 25.8125 25.8 24.05L27.4625 14.1C27.6625 12.875 27.0375 11.2375 26.075 10.4625L17.4125 3.53746C16.075 2.46246 13.9125 2.46246 12.5875 3.52496Z" stroke="#FE552E" stroke-width="1.5" stroke-linecap="round" stroke-linejoin="round"/>
</svg>
