<svg width="29" height="29" viewBox="0 0 29 29" fill="none" xmlns="http://www.w3.org/2000/svg">
<path d="M10.2708 17.2188C10.2708 19.5388 12.18 21.4479 14.5 21.4479C16.82 21.4479 18.7291 19.5388 18.7291 17.2188" stroke="black" stroke-width="1.5" stroke-miterlimit="10" stroke-linecap="round" stroke-linejoin="round"/>
<path d="M10.6454 2.41666L6.27124 6.80291" stroke="black" stroke-width="1.5" stroke-miterlimit="10" stroke-linecap="round" stroke-linejoin="round"/>
<path d="M18.3546 2.41666L22.7288 6.80291" stroke="black" stroke-width="1.5" stroke-miterlimit="10" stroke-linecap="round" stroke-linejoin="round"/>
<path d="M2.41669 9.48542C2.41669 7.25001 3.61294 7.06876 5.09919 7.06876H23.9009C25.3871 7.06876 26.5834 7.25001 26.5834 9.48542C26.5834 12.0833 25.3871 11.9021 23.9009 11.9021H5.09919C3.61294 11.9021 2.41669 12.0833 2.41669 9.48542Z" stroke="black" stroke-width="1.5"/>
<path d="M4.22919 12.0833L5.93294 22.5233C6.3196 24.8675 7.25002 26.5833 10.7059 26.5833H17.9921C21.75 26.5833 22.3059 24.94 22.7409 22.6683L24.7709 12.0833" stroke="black" stroke-width="1.5" stroke-linecap="round"/>
</svg>
