<svg width="27" height="27" viewBox="0 0 27 27" fill="none" xmlns="http://www.w3.org/2000/svg">
<path d="M13.635 14.3775C13.5562 14.3662 13.455 14.3662 13.365 14.3775C11.385 14.31 9.81 12.69 9.81 10.6987C9.81 8.66248 11.4525 7.00873 13.5 7.00873C15.5362 7.00873 17.19 8.66248 17.19 10.6987C17.1787 12.69 15.615 14.31 13.635 14.3775Z" stroke="black" stroke-width="1.6875" stroke-linecap="round" stroke-linejoin="round"/>
<path d="M21.0825 21.8026C19.08 23.6363 16.425 24.7501 13.5 24.7501C10.575 24.7501 7.91998 23.6363 5.91748 21.8026C6.02998 20.7451 6.70498 19.7101 7.90873 18.9001C10.9912 16.8526 16.0312 16.8526 19.0912 18.9001C20.295 19.7101 20.97 20.7451 21.0825 21.8026Z" stroke="black" stroke-width="1.6875" stroke-linecap="round" stroke-linejoin="round"/>
<path d="M13.5 24.75C19.7132 24.75 24.75 19.7132 24.75 13.5C24.75 7.2868 19.7132 2.25 13.5 2.25C7.2868 2.25 2.25 7.2868 2.25 13.5C2.25 19.7132 7.2868 24.75 13.5 24.75Z" stroke="black" stroke-width="1.6875" stroke-linecap="round" stroke-linejoin="round"/>
</svg>
